<svg xmlns="http://www.w3.org/2000/svg" aria-hidden="true" style="position:absolute;width:0;height:0;overflow:hidden"><defs><symbol id="icon-antena" viewBox="0 0 30 32"><path d="m29.773 22.098-8.443-8.505.937-4.615c.242.094.499.144.758.146h.006a2.159 2.159 0 1 0-2.008-1.435l-4.96.605L7.972.161a.534.534 0 0 0-.377-.16.532.532 0 0 0-.373.155L5.709 1.66a.534.534 0 0 0 0 .754l.814.826a14.943 14.943 0 0 0 2.519 17.663.513.513 0 0 0 .146.098c-.034.18-.051.364-.052.547v6.187h-6.4a2.67 2.67 0 0 0-2.667 2.667v1.067c0 .295.239.533.533.533h24.533a.533.533 0 0 0 .533-.533v-1.067a2.67 2.67 0 0 0-2.667-2.667h-6.4v-2.742a15.09 15.09 0 0 0 3.049.32 14.854 14.854 0 0 0 7.04-1.783l.818.823a.534.534 0 0 0 .377.16.532.532 0 0 0 .373-.155l1.513-1.504a.534.534 0 0 0 0-.754zM22.28 6.233a1.067 1.067 0 1 1 .753 1.822h-.003a1.067 1.067 0 0 1-.747-1.823h-.002zm-1.256 3.505-.598 2.946-1.175-1.182 1.774-1.763zm-.605-.902-1.92 1.909-1.485-1.493 3.405-.415zM23.004 28.8a1.6 1.6 0 0 1 1.6 1.6v.533H1.137V30.4a1.6 1.6 0 0 1 1.6-1.6h20.267zm-7.467-2.133v1.067h-5.333v-1.067h5.333zM10.204 25.6v-4.053c0-1.294 1.196-2.347 2.667-2.347s2.667 1.053 2.667 2.347V25.6h-5.333zm6.4-1.696v-2.357c0-1.882-1.675-3.413-3.733-3.413A3.8 3.8 0 0 0 9.59 19.92 13.87 13.87 0 0 1 7.311 4.033l18.602 18.708a13.818 13.818 0 0 1-9.309 1.163zm11.289-.684L6.836 2.039l.755-.752 7.935 7.98c.004 0 .006.007.01.01l13.115 13.191-.757.752z"/></symbol><symbol id="icon-astronaut" viewBox="0 0 32 32"><path fill="#4d5ae5" d="M31.974 4.524a.534.534 0 0 0-.43-.363l-1.91-.278-.855-1.731c-.179-.365-.777-.365-.956 0l-.855 1.731-1.91.278a.535.535 0 0 0-.296.91l1.383 1.348-.326 1.903c-.034.2.048.402.212.522a.53.53 0 0 0 .562.04l1.709-.899 1.709.899a.536.536 0 0 0 .775-.563l-.326-1.903 1.383-1.348a.536.536 0 0 0 .135-.547zm-2.463 1.327a.534.534 0 0 0-.153.472l.191 1.114-1-.526a.533.533 0 0 0-.498 0l-1.001.526.191-1.114a.534.534 0 0 0-.153-.472l-.81-.789 1.119-.163a.532.532 0 0 0 .402-.292l.5-1.013.5 1.013a.535.535 0 0 0 .402.292l1.119.163-.809.789zM26.134 20.522h-1.067v1.067h1.067v-1.067zM26.134 22.656h-1.067v1.067h1.067v-1.067zM27.2 21.589h-1.067v1.067H27.2v-1.067zM25.067 21.589H24v1.067h1.067v-1.067zM22.4 26.389h-1.067v1.067H22.4v-1.067zM22.4 28.522h-1.067v1.067H22.4v-1.067zM23.467 27.456H22.4v1.067h1.067v-1.067zM21.333 27.456h-1.067v1.067h1.067v-1.067zM16 24.256h-1.067v1.067H16v-1.067zM16 26.389h-1.067v1.067H16v-1.067zM17.067 25.322H16v1.067h1.067v-1.067zM14.933 25.322h-1.067v1.067h1.067v-1.067zM5.867 6.122H4.8v1.067h1.067V6.122zM5.867 8.255H4.8v1.067h1.067V8.255z" style="fill:var(--color1, #4d5ae5)"/><path fill="#4d5ae5" d="M6.933 7.189H5.866v1.067h1.067V7.189zM4.8 7.189H3.733v1.067H4.8V7.189z" style="fill:var(--color1, #4d5ae5)"/><path fill="#2e2f42" d="M24.715 14.159a1.775 1.775 0 0 0-1.188-.705 1.778 1.778 0 0 0-1.34.352l-1.252.96-1.898 1.417-1.358-.541c2.421-1.086 4.114-3.508 4.114-6.32 0-3.823-3.123-6.933-6.961-6.933s-6.961 3.11-6.961 6.933a6.86 6.86 0 0 0 1.12 3.758l-2.764-.024h-.005c-.009 0-.015.004-.023.005a.515.515 0 0 0-.155.031l-.038.013c-.006.003-.013.003-.019.006l-3.233 1.596-.001.001-1.893.911a.397.397 0 0 0-.063.035 1.779 1.779 0 0 0-.598 2.295c.22.429.595.745 1.056.889a1.776 1.776 0 0 0 1.378-.128l1.388-.738 2.264-1.169 1.357-.008L2.2 22.211l-.002.001-1.339 1.333c-.316.315-.49.732-.49 1.178s.174.863.49 1.179c.325.323.752.485 1.179.485s.854-.162 1.18-.485l1.314-1.309 1.741-1.3.901.897-1.762 1.754-.002.001-1.339 1.333c-.316.315-.49.732-.49 1.178s.174.863.49 1.179c.325.323.753.485 1.18.485s.855-.162 1.18-.485l3.482-3.467.001-.002 1.01-1-.004-.004c.006-.006.015-.009.022-.015l5.166-5.658 3.471.494a.52.52 0 0 0 .262-.033c.018-.006.033-.015.05-.023.019-.01.039-.015.058-.027l3.213-2.133c.012-.008.018-.021.029-.029.013-.01.029-.014.041-.026l1.271-1.191c.662-.62.753-1.635.212-2.362zM2.13 17.77a.714.714 0 0 1-.558.052.717.717 0 0 1-.213-1.26l1.314-.632.449 1.313-.992.527zm3.498-1.828-1.548.8-.439-1.283 2.027-1.001-.04 1.484zm15.099-6.62a5.79 5.79 0 0 1-.599 2.559l-4.181-1.899a1.863 1.863 0 0 0-.788-1.388l1.464-4.86c2.378.756 4.105 2.974 4.105 5.588zm-11.789 0c0-3.235 2.644-5.867 5.894-5.867.253 0 .5.021.745.052l-1.432 4.754c-.019-.001-.037-.006-.057-.006-1.033 0-1.873.837-1.873 1.867s.84 1.867 1.873 1.867c.694 0 1.294-.383 1.618-.945l3.862 1.755a5.894 5.894 0 0 1-4.737 2.39c-3.25 0-5.894-2.632-5.894-5.867zm5.956.8c0 .441-.362.8-.806.8s-.806-.359-.806-.8c0-.441.362-.8.806-.8s.806.359.806.8zM2.465 25.146a.608.608 0 0 1-.854.001.592.592 0 0 1 0-.844l.962-.958.851.848-.959.955zm3.214 3.734a.608.608 0 0 1-.855.001.592.592 0 0 1 0-.844l.963-.959.852.848-.96.955zm3.481-3.469-.002.001-1.765 1.76-.852-.848 1.763-1.755.002-.001c.04-.04.065-.088.09-.135.007-.014.02-.026.026-.04.017-.041.019-.085.026-.129.003-.025.014-.047.014-.073 0-.036-.013-.07-.02-.106-.006-.032-.006-.065-.019-.095a.55.55 0 0 0-.091-.138c-.01-.012-.014-.027-.025-.038h-.001l-.001-.002-1.607-1.6c-.017-.017-.039-.024-.058-.038a.507.507 0 0 0-.087-.058.515.515 0 0 0-.093-.033.507.507 0 0 0-.103-.02.5.5 0 0 0-.095.005.53.53 0 0 0-.104.02.477.477 0 0 0-.094.045c-.02.011-.042.015-.061.029L4.23 23.486l-.901-.897 2.399-2.386 4.361 4.289-.928.919zm6.819-7.017c-.015-.002-.03.004-.045.003a.556.556 0 0 0-.3.075.492.492 0 0 0-.083.061c-.013.011-.028.017-.04.029l-4.698 5.146-4.328-4.257 2.833-2.818a.534.534 0 0 0-.379-.911v-.001l-2.219.013.028-1.607 3.104.027a6.947 6.947 0 0 0 4.981 2.101c.437 0 .864-.045 1.279-.123.04.032.079.065.13.085l2.41.96.152.758.178.885-3.003-.427zm4.041.178-.313-1.558 1.446-1.08.947 1.257-2.08 1.381zm3.754-2.831-.838.785-.931-1.236.831-.637a.735.735 0 0 1 .543-.143.718.718 0 0 1 .48.284.713.713 0 0 1-.085.947z" style="fill:var(--color2, #2e2f42)"/><path fill="#2e2f42" d="m13.602 18.544-2.143-2.133a.534.534 0 0 0-.753 0l-2.142 2.133a.537.537 0 0 0 0 .756l2.142 2.133a.536.536 0 0 0 .753 0l2.143-2.133a.535.535 0 0 0 0-.756zm-2.519 1.759-1.387-1.381 1.387-1.381 1.387 1.381-1.387 1.381zM17.164 5.071l-.258 1.036c.071.018 1.738.452 1.738 2.149h1.067c0-2.017-1.666-2.965-2.547-3.185zM19.711 9.322h-1.067v1.067h1.067V9.322z" style="fill:var(--color2, #2e2f42)"/></symbol><symbol id="icon-brand" viewBox="0 0 44 32"><path fill="#8e8f99" d="M3.333 26.694c.171.19.262.429.257.673.009.16-.023.319-.091.466s-.174.279-.307.384a1.857 1.857 0 0 1-1.157.31H0v-4.266h1.993a1.85 1.85 0 0 1 1.104.283c.129.097.231.22.298.358s.098.289.089.44a.917.917 0 0 1-.232.652c-.155.17-.368.287-.607.334.27.044.514.174.688.365zM.947 26.05h.852a.869.869 0 0 0 .542-.142c.064-.052.114-.117.145-.189s.045-.15.037-.228c.006-.077-.007-.155-.038-.227s-.08-.137-.142-.19a.896.896 0 0 0-.558-.144H.947v1.119zm1.477 1.636c.068-.053.122-.12.157-.195s.05-.157.044-.238c.005-.082-.011-.165-.046-.24s-.09-.143-.16-.197a.95.95 0 0 0-.579-.154H.946v1.173h.905a.973.973 0 0 0 .572-.148zM7.408 28.528l-1.109-1.667h-.417v1.667h-.954v-4.266h1.806a1.91 1.91 0 0 1 1.257.363c.252.232.405.537.429.86s-.08.645-.295.905c-.223.23-.527.383-.861.433l1.181 1.705H7.408zM5.882 26.28h.78c.542 0 .813-.215.813-.646.005-.088-.009-.176-.044-.259s-.087-.158-.155-.221a.912.912 0 0 0-.613-.173h-.789l.009 1.298zM12.621 27.67H10.72l-.336.859h-1l1.745-4.218h1.081l1.739 4.218h-1l-.329-.859zm-.255-.646-.695-1.801-.694 1.801h1.389zM19.147 28.528H18.2l-2.123-2.901v2.901h-.944v-4.266h.944L18.2 27.18v-2.918h.947v4.266zM24.55 27.507a1.96 1.96 0 0 1-.857.752c-.412.187-.869.28-1.331.269h-1.685v-4.266h1.685c.461-.011.918.079 1.331.263.362.164.661.424.857.744.195.347.296.73.296 1.119s-.102.772-.296 1.119zm-1.084-.102c.27-.283.419-.645.419-1.018s-.149-.735-.419-1.018a1.766 1.766 0 0 0-1.185-.363h-.657v2.761h.657c.433.024.859-.106 1.185-.363zM13.214.533s12.22 4.154 11.961 10.164v10.166s-12.211-4.156-11.957-10.166L13.213.533zM36.062 18.483c2.308-1.43 4.978-2.316 7.764-2.576v-3.182c-3.211 1.114-5.935 3.134-7.764 5.758z" style="fill:var(--color3, #8e8f99)"/><path fill="#8e8f99" d="M34.675 19.442c1.889-3.424 5.164-6.067 9.151-7.384v-9.17S26.422 8.805 26.79 17.364v14.474s.776-.265 1.995-.761c0-.463 0-.929.056-1.398.36-3.974 2.459-7.656 5.834-10.237z" style="fill:var(--color3, #8e8f99)"/><path fill="#8e8f99" d="M33.02 24.819c.091-1.004.295-1.997.609-2.963-2.102 2.229-3.374 4.995-3.639 7.909-.025.275-.039.55-.046.834a52.536 52.536 0 0 0 3.347-1.588 13.52 13.52 0 0 1-.271-4.191zM33.712 24.871a12.935 12.935 0 0 0 .215 3.795c4.755-2.561 10.098-6.519 9.892-11.302v-.417c-3.397.342-6.575 1.679-9.047 3.805a13.074 13.074 0 0 0-1.06 4.118z" style="fill:var(--color3, #8e8f99)"/></symbol><symbol id="icon-clock" viewBox="0 0 31 32"><path d="M30.797 15.301C30.795 6.849 23.942-.002 15.489 0S.186 6.855.188 15.308a15.304 15.304 0 0 0 10.649 14.576.662.662 0 0 0 .529-.065.637.637 0 0 0 .283-.356l3.865-12.25a1.912 1.912 0 1 0-.84-3.635L9.568 8.471a.637.637 0 0 0-.902.902l5.103 5.109a1.876 1.876 0 0 0 .536 2.309l-3.683 11.673C3.344 25.783-.382 17.71 2.299 10.432S13.053-.572 20.331 2.109c7.278 2.681 11.004 10.754 8.323 18.032a14.042 14.042 0 0 1-7.462 7.973l-.398-1.874a.637.637 0 0 0-1.049-.344l-3.837 3.426a.637.637 0 0 0 .231 1.084l4.899 1.564a.638.638 0 0 0 .819-.74l-.391-1.839a15.255 15.255 0 0 0 9.329-14.089zm-15.305-.637a.638.638 0 1 1 0 1.277.638.638 0 0 1 0-1.277zm2.101 14.864 2.184-1.948.603 2.84-2.787-.892z"/></symbol><symbol id="icon-company-tag-line" viewBox="0 0 67 32"><path fill="#8e8f99" d="M33.799 15.249a2.098 2.098 0 0 1-.431-1.417v-2.054c0-.63.143-1.108.428-1.435s.776-.49 1.472-.489c.654 0 1.118.139 1.392.418.299.355.445.79.412 1.229v.483h-1.169v-.489a2.47 2.47 0 0 0-.034-.478.464.464 0 0 0-.167-.284.676.676 0 0 0-.424-.111.714.714 0 0 0-.445.117.55.55 0 0 0-.194.313 2.349 2.349 0 0 0-.046.508v2.492c-.018.24.033.481.15.7.058.074.139.133.233.17s.199.05.302.039c.15.011.298-.03.414-.113a.5.5 0 0 0 .174-.303 2.78 2.78 0 0 0 .036-.499v-.506h1.169v.462c.033.457-.109.911-.404 1.291-.269.305-.726.458-1.399.458s-1.181-.163-1.47-.501zM38.668 15.269c-.295-.32-.443-.786-.443-1.402v-2.16c0-.61.148-1.072.443-1.385s.789-.469 1.482-.468c.688 0 1.179.156 1.474.468.295.313.446.775.446 1.385v2.16c0 .61-.15 1.078-.45 1.4s-.789.483-1.47.483-1.184-.163-1.482-.48zm2.026-.518c.106-.2.154-.42.14-.639v-2.645a1.172 1.172 0 0 0-.138-.627c-.059-.076-.142-.135-.239-.172s-.204-.05-.308-.037c-.105-.013-.212 0-.309.037s-.18.096-.24.172a1.146 1.146 0 0 0-.14.627v2.658c-.015.22.033.439.14.639.068.067.152.121.247.158a.828.828 0 0 0 .6 0 .747.747 0 0 0 .247-.158v-.013zM43.476 9.917h1.259l.947 3.986.968-3.986h1.225l.123 5.753h-.906l-.097-3.998-.935 3.998h-.726l-.968-4.013-.09 4.013h-.915l.114-5.753zM49.41 9.917h1.961c1.13 0 1.695.545 1.695 1.634 0 1.043-.595 1.564-1.784 1.563h-.668v2.557h-1.211l.007-5.753zm1.675 2.459c.12.013.241.004.356-.028s.221-.084.31-.154a.929.929 0 0 0 .174-.65 1.808 1.808 0 0 0-.058-.522c-.017-.057-.048-.111-.089-.158s-.094-.086-.153-.116a1.251 1.251 0 0 0-.54-.092h-.47v1.719h.47zM54.812 9.917h1.3l1.334 5.753h-1.128l-.264-1.327h-1.16l-.271 1.327h-1.145l1.334-5.753zm1.111 3.76-.453-2.415-.453 2.415h.906zM58.523 9.917h.847l1.622 3.282V9.917h1.005v5.753h-.806l-1.632-3.426v3.426H58.52l.002-5.753zM64.351 13.477l-1.349-3.552h1.135l.823 2.281.772-2.281h1.111l-1.332 3.552v2.194h-1.162v-2.194zM35.668 18.186v.301h-.988v2.338h-.414v-2.338h-.993v-.301h2.395zM38.764 20.824h-.32a.141.141 0 0 1-.09-.025.13.13 0 0 1-.053-.061l-.286-.627h-1.37l-.286.627a.172.172 0 0 1-.044.071.153.153 0 0 1-.09.025h-.32l1.211-2.639h.421l1.225 2.628zm-2.004-.979h1.143l-.484-1.074a1.85 1.85 0 0 1-.09-.249c-.017.05-.031.098-.046.14l-.044.111-.479 1.072zM40.851 20.565c.076.003.152.003.228 0a1.651 1.651 0 0 0 .368-.079c.053-.019.107-.042.162-.065v-.593h-.484c-.012.001-.024-.001-.035-.005s-.021-.009-.03-.016a.062.062 0 0 1-.024-.048v-.203h.939v1.011a1.907 1.907 0 0 1-.511.215c-.099.025-.2.043-.303.054a3.775 3.775 0 0 1-.353.017 1.843 1.843 0 0 1-.61-.098 1.492 1.492 0 0 1-.484-.276 1.259 1.259 0 0 1-.312-.418 1.32 1.32 0 0 1-.111-.547 1.356 1.356 0 0 1 .109-.552c.07-.156.176-.299.312-.418a1.47 1.47 0 0 1 .484-.274c.207-.067.427-.101.649-.098.113 0 .225.008.337.023a1.65 1.65 0 0 1 .53.171c.074.041.145.087.211.138l-.116.163c-.009.015-.023.027-.039.036s-.036.014-.055.014a.16.16 0 0 1-.075-.021 1.81 1.81 0 0 1-.119-.063 1.02 1.02 0 0 0-.162-.071 1.524 1.524 0 0 0-.223-.059 1.85 1.85 0 0 0-.307-.023 1.413 1.413 0 0 0-.467.073 1.03 1.03 0 0 0-.356.209.918.918 0 0 0-.225.328 1.236 1.236 0 0 0 0 .88 1.027 1.027 0 0 0 .595.541c.154.046.317.063.479.052zM44.711 20.523h1.322v.301h-1.726v-2.639h.414l-.01 2.338zM47.408 20.824h-.414v-2.639h.414v2.639zM48.948 18.198a.189.189 0 0 1 .063.048l1.77 1.989a.737.737 0 0 1 0-.094v-1.966h.361v2.649h-.208a.197.197 0 0 1-.09-.015.23.23 0 0 1-.065-.05l-1.767-1.987V20.823h-.346v-2.639h.215c.023 0 .046.004.068.012zM54.189 18.186v.29h-1.467v.871h1.189v.28h-1.189v.9h1.467v.29h-1.893v-2.632h1.893zM10.805 1.891l18.384 4.504v15.784l-18.384-4.502V1.891zM9.626.545v17.898l20.739 5.083V5.63L9.626.545z" style="fill:var(--color3, #8e8f99)"/><path fill="#8e8f99" d="M20.742 31.834 0 26.747V8.851l20.742 5.085v17.898z" style="fill:var(--color3, #8e8f99)"/><path fill="#8e8f99" d="m9.97 1.688 18.144 4.448-7.716 6.66-18.146-4.45L9.97 1.688zM9.626.545 0 8.851l20.742 5.085 9.624-8.306L9.627.545zM21.909 30.827l8.457-7.299-8.457-2.074v9.374z" style="fill:var(--color3, #8e8f99)"/></symbol><symbol id="icon-facebook" viewBox="0 0 32 32"><path fill="#f4f4fd" d="M21.329 5.313h2.921V.225C23.746.156 22.013 0 19.994 0c-4.212 0-7.097 2.649-7.097 7.519V12H8.249v5.688h4.648V32h5.699V17.689h4.46l.708-5.688h-5.169V8.082c.001-1.644.444-2.769 2.735-2.769z" style="fill:var(--color4, #f4f4fd)"/></symbol><symbol id="icon-foster-peters" viewBox="0 0 66 32"><path fill="#8e8f99" d="M10.207 9.77h-.002c-1.862 0-3.371 1.361-3.371 3.04v.002c0 1.679 1.509 3.04 3.371 3.04h.002c1.862 0 3.371-1.361 3.371-3.04v-.002c0-1.679-1.509-3.04-3.371-3.04zM35.092 8.798c-.005-2.332-1.035-4.567-2.863-6.215S27.922.005 25.336 0c-2.587.004-5.067.932-6.896 2.582s-2.86 3.884-2.865 6.217v12.858s19.515-1.96 19.517-12.856v-.002zM0 25.877c.005 1.622.721 3.177 1.994 4.325s2.996 1.794 4.796 1.799c1.799-.005 3.523-.651 4.795-1.798s1.989-2.701 1.994-4.323v-8.947S0 18.298 0 25.878zm6.789 1.603c-.352 0-.695-.094-.988-.27s-.52-.426-.655-.719-.17-.615-.101-.926c.069-.311.238-.597.487-.821s.565-.377.91-.439c.345-.062.702-.03 1.027.091s.603.327.798.59c.195.264.3.573.3.891.001.211-.044.42-.133.615s-.22.373-.385.522c-.165.149-.362.268-.578.349s-.448.123-.682.123v-.006zM19.207 24.597v3.329h-.686v-3.329h.686zm1.326 1.422v.535h-1.514v-.535h1.514zm.16-1.422v.537h-1.674v-.537h1.674zm3.133 1.587v.158c0 .253-.034.48-.103.681s-.165.373-.29.515a1.25 1.25 0 0 1-.448.322 1.423 1.423 0 0 1-.574.112c-.209 0-.4-.037-.574-.112a1.29 1.29 0 0 1-.448-.322 1.5 1.5 0 0 1-.295-.514 2.09 2.09 0 0 1-.103-.681v-.158c0-.255.034-.482.103-.681.069-.201.165-.373.29-.514.127-.142.276-.25.448-.325.174-.075.365-.112.574-.112.21 0 .402.037.574.112.174.075.323.183.448.325.127.142.224.313.293.514.07.2.105.427.105.681zm-.693.158v-.162c0-.177-.016-.332-.048-.466s-.079-.247-.142-.338a.623.623 0 0 0-.538-.277.614.614 0 0 0-.535.277c-.061.091-.107.204-.139.338s-.048.29-.048.466v.162c0 .175.016.331.048.466.032.134.079.248.142.341.063.091.139.161.229.208s.193.071.309.071c.116 0 .219-.024.309-.071s.165-.117.226-.208c.061-.093.107-.207.139-.341.032-.136.048-.291.048-.466zm2.92.713a.447.447 0 0 0-.027-.16.308.308 0 0 0-.096-.133c-.047-.041-.114-.082-.199-.121s-.196-.081-.332-.123a4.267 4.267 0 0 1-.43-.165 1.775 1.775 0 0 1-.357-.213.952.952 0 0 1-.242-.286.786.786 0 0 1-.087-.377.79.79 0 0 1 .091-.377.872.872 0 0 1 .256-.293c.11-.082.239-.146.389-.19.151-.044.316-.066.496-.066.245 0 .46.044.642.133s.325.21.425.364c.102.154.153.33.153.528h-.681a.513.513 0 0 0-.062-.256.421.421 0 0 0-.183-.176.648.648 0 0 0-.306-.064.7.7 0 0 0-.297.055.393.393 0 0 0-.178.144.351.351 0 0 0-.059.201c0 .056.014.107.041.153.029.046.072.088.128.128s.126.077.208.112c.082.035.178.069.286.103.181.055.341.117.478.185.139.069.255.146.348.231a.851.851 0 0 1 .281.658c0 .145-.028.274-.085.389s-.138.211-.245.29c-.107.079-.234.139-.382.181s-.313.062-.496.062c-.165 0-.327-.021-.487-.064a1.486 1.486 0 0 1-.437-.199c-.13-.088-.233-.201-.311-.338s-.117-.3-.117-.487h.688c0 .104.016.191.048.263s.077.13.135.174c.059.044.13.076.21.096.082.02.172.03.27.03a.745.745 0 0 0 .293-.05.356.356 0 0 0 .228-.341zm2.641-2.458v3.329h-.684v-3.329h.684zm1.024 0v.537h-2.716v-.537h2.716zm2.625 2.794v.535h-1.772v-.535h1.772zm-1.548-2.794v3.329h-.686v-3.329h.686zm1.317 1.356v.521h-1.541v-.521h1.541zm.229-1.356v.537h-1.77v-.537h1.77zm.402 0h1.242c.255 0 .473.038.656.114.184.076.326.189.425.338s.149.333.149.551c0 .178-.03.332-.091.46a.848.848 0 0 1-.254.318 1.295 1.295 0 0 1-.382.201l-.217.114h-1.079l-.005-.535h.803c.12 0 .22-.021.3-.064s.139-.102.178-.178a.552.552 0 0 0 .062-.265c0-.107-.02-.199-.059-.277s-.1-.137-.181-.178-.182-.062-.304-.062h-.556v2.792h-.686v-3.329zm1.862 3.329-.759-1.484.725-.005.768 1.457v.032h-.734zm3.601-1.186h-.848v-.535h.848a.69.69 0 0 0 .32-.064c.082-.044.143-.105.181-.183s.057-.165.057-.263c0-.099-.019-.191-.057-.277s-.098-.154-.181-.206-.189-.078-.32-.078h-.611v2.792h-.686v-3.329h1.297c.261 0 .484.047.67.142.187.093.331.222.43.386s.149.353.149.565c0 .215-.05.401-.149.558s-.242.278-.43.364a1.602 1.602 0 0 1-.67.128zm3.956.651v.535H40.39v-.535h1.772zm-1.548-2.794v3.329h-.686v-3.329h.686zm1.317 1.356v.521H40.39v-.521h1.541zm.229-1.356v.537h-1.77v-.537h1.77zm1.936 0v3.329h-.684v-3.329h.684zm1.025 0v.537h-2.716v-.537h2.716zm2.625 2.794v.535h-1.772v-.535h1.772zm-1.548-2.794v3.329h-.686v-3.329h.686zm1.317 1.356v.521h-1.541v-.521h1.541zm.229-1.356v.537h-1.77v-.537h1.77zm.402 0h1.242c.255 0 .473.038.656.114.184.076.326.189.425.338s.149.333.149.551c0 .178-.031.332-.091.46a.848.848 0 0 1-.254.318 1.295 1.295 0 0 1-.382.201l-.217.114h-1.079l-.005-.535h.803c.12 0 .22-.021.3-.064s.139-.102.178-.178a.552.552 0 0 0 .062-.265c0-.107-.02-.199-.059-.277s-.1-.137-.181-.178a.669.669 0 0 0-.304-.062h-.556v2.792h-.686v-3.329zm1.861 3.329-.759-1.484.725-.005.768 1.457v.032h-.734zm2.872-.871a.447.447 0 0 0-.027-.16.308.308 0 0 0-.096-.133c-.047-.041-.114-.082-.199-.121s-.196-.081-.332-.123a4.267 4.267 0 0 1-.43-.165 1.775 1.775 0 0 1-.357-.213.952.952 0 0 1-.242-.286.786.786 0 0 1-.087-.377c0-.139.03-.264.091-.377a.872.872 0 0 1 .256-.293c.11-.082.239-.146.389-.19.151-.044.316-.066.496-.066.245 0 .46.044.642.133s.325.21.425.364c.102.154.153.33.153.528h-.681a.513.513 0 0 0-.062-.256.421.421 0 0 0-.183-.176.648.648 0 0 0-.306-.064.7.7 0 0 0-.297.055.393.393 0 0 0-.178.144.351.351 0 0 0-.059.201c0 .056.014.107.041.153.029.046.072.088.128.128s.126.077.208.112c.082.035.178.069.286.103.181.055.341.117.478.185.139.069.255.146.348.231a.851.851 0 0 1 .281.658c0 .145-.028.274-.085.389s-.138.211-.245.29c-.107.079-.234.139-.382.181s-.313.062-.496.062c-.165 0-.327-.021-.487-.064a1.486 1.486 0 0 1-.437-.199c-.13-.088-.233-.201-.311-.338s-.117-.3-.117-.487h.688c0 .104.016.191.048.263s.077.13.135.174c.059.044.13.076.21.096.082.02.172.03.27.03a.745.745 0 0 0 .293-.05.356.356 0 0 0 .228-.341z" style="fill:var(--color3, #8e8f99)"/></symbol><symbol id="icon-Group" viewBox="0 0 116 32"><path fill="#8e8f99" d="M7.963 3.527a4.336 4.336 0 0 0-3.274-1.324 4.862 4.862 0 0 0-1.891.355 4.36 4.36 0 0 0-1.472.969 4.244 4.244 0 0 0-.949 1.479 4.8 4.8 0 0 0-.339 1.827V17.87a5.21 5.21 0 0 0 .434 2.264c.261.566.637 1.07 1.104 1.48a3.87 3.87 0 0 0 1.516.784 6.126 6.126 0 0 0 1.648.229 4.12 4.12 0 0 0 1.781-.385 4.635 4.635 0 0 0 1.472-1.021c.41-.429.737-.93.964-1.48a4.457 4.457 0 0 0 .353-1.761v-1.235H6.425v.984c.009.336-.049.67-.169.984a1.757 1.757 0 0 1-.42.621 1.784 1.784 0 0 1-.603.318 2.03 2.03 0 0 1-.603.104 1.463 1.463 0 0 1-1.354-.592 2.62 2.62 0 0 1-.383-1.48V7.394a3.512 3.512 0 0 1 .353-1.65 1.464 1.464 0 0 1 1.412-.666 1.53 1.53 0 0 1 1.288.621c.323.424.492.946.478 1.479v.954h2.855V7.008a5.203 5.203 0 0 0-.353-1.931 4.537 4.537 0 0 0-.964-1.553zM25.102 3.401a5.133 5.133 0 0 0-3.282-1.213 5.037 5.037 0 0 0-1.722.311 4.684 4.684 0 0 0-1.523.902 4.55 4.55 0 0 0-1.119 1.546 5.13 5.13 0 0 0-.419 2.138v10.586a5.1 5.1 0 0 0 .419 2.167 4.304 4.304 0 0 0 1.119 1.48c.441.409.959.726 1.523.932a5.06 5.06 0 0 0 1.722.311 4.962 4.962 0 0 0 1.722-.311 4.819 4.819 0 0 0 1.56-.932 4.51 4.51 0 0 0 1.089-1.48 5.106 5.106 0 0 0 .419-2.167V7.085a5.161 5.161 0 0 0-.419-2.138 4.784 4.784 0 0 0-1.089-1.546zm-1.346 14.27a1.897 1.897 0 0 1-.574 1.531 2.112 2.112 0 0 1-2.716 0 1.897 1.897 0 0 1-.574-1.531V7.085a1.897 1.897 0 0 1 .574-1.531 2.112 2.112 0 0 1 2.716 0 1.897 1.897 0 0 1 .574 1.531v10.586zM47.614 22.398V2.358H44.84l-3.643 10.608h-.051L37.474 2.358h-2.745v20.04h2.863V10.207h.051l2.804 8.618h1.428l2.826-8.618h.051v12.191h2.863zM63.878 3.763a3.969 3.969 0 0 0-1.619-1.095 6.355 6.355 0 0 0-2.075-.311h-4.253v20.04h2.855V14.57h1.472a5.227 5.227 0 0 0 2.576-.547 4.167 4.167 0 0 0 1.568-1.531c.33-.533.553-1.126.655-1.746.112-.754.164-1.516.154-2.278a11.393 11.393 0 0 0-.28-2.863 4.273 4.273 0 0 0-1.052-1.842zm-1.472 6.111a2.52 2.52 0 0 1-.265 1.043 1.606 1.606 0 0 1-.736.703 2.942 2.942 0 0 1-1.347.252h-1.302V5.059h1.472c.443-.022.885.065 1.288.252.295.169.53.428.67.74.156.352.241.732.25 1.117V8.5c0 .467.029.947 0 1.376h-.029zM77.404 2.358h-2.34l-4.415 20.04h2.855l.839-4.305h3.893l.839 4.305h2.856l-4.526-20.04zm-2.635 13.005 1.406-7.264h.052l1.398 7.264h-2.856zM95.854 14.431h-.052L91.49 2.358h-2.745v20.04H91.6V10.347h.059l4.364 12.051h2.686V2.358h-2.855v12.073zM113.302 2.358l-2.296 7.967h-.059l-2.296-7.967h-3.025l3.922 11.57v8.47h2.856v-8.47l3.922-11.57h-3.025zM0 28.057h1.376v3.861h.935v-3.861H3.68v-.792H0v.792zM11.569 27.265l-1.803 4.653h.994l.383-1.058h1.855l.397 1.058h1.016l-1.847-4.653h-.993zm-.148 2.811.633-1.724.633 1.724h-1.266zM23.005 30.202h1.074v.599c-.314.252-.703.39-1.104.392a1.17 1.17 0 0 1-.986-.444 1.946 1.946 0 0 1-.346-1.213c0-1.036.449-1.554 1.339-1.554a.982.982 0 0 1 1.052.74l.92-.178c-.199-.91-.854-1.369-1.972-1.369a2.338 2.338 0 0 0-1.626.599 2.266 2.266 0 0 0-.669 1.79 2.54 2.54 0 0 0 .596 1.746c.228.235.504.417.809.535s.632.167.957.145a2.795 2.795 0 0 0 1.972-.74v-1.834h-2.016v.784zM34.684 27.265h-.942v4.653h3.26v-.792h-2.318v-3.861zM44.56 27.265h-.942v4.653h.942v-4.653zM54.215 30.372l-1.906-3.107h-.913v4.653h.876v-3.04l1.869 3.04h.935v-4.653h-.861v3.107zM62.943 29.869h2.318v-.791h-2.318v-1.021h2.495v-.792h-3.437v4.653h3.532v-.792h-2.591v-1.258zM84.108 29.1h-1.832v-1.835h-.934v4.653h.934v-2.034h1.832v2.034h.935v-4.653h-.935V29.1zM92.888 29.869h2.326v-.791h-2.326v-1.021h2.502v-.792h-3.437v4.653h3.525v-.792h-2.59v-1.258zM104.795 29.869c.809-.126 1.222-.555 1.222-1.295a1.117 1.117 0 0 0-.457-1.036 2.628 2.628 0 0 0-1.361-.274h-1.972v4.653h.935v-1.946h.184c.199-.012.399.023.581.104a.97.97 0 0 1 .331.34l1.016 1.48h1.119l-.567-.91a3.244 3.244 0 0 0-1.03-1.117zm-.942-.643h-.692v-1.169h.736c.321-.026.643.012.95.111a.6.6 0 0 1 .204.484.606.606 0 0 1-.249.463 2.654 2.654 0 0 1-.95.111zM113.773 29.869h2.318v-.791h-2.318v-1.021h2.502v-.792h-3.444v4.653h3.532v-.792h-2.59v-1.258z" style="fill:var(--color3, #8e8f99)"/></symbol><symbol id="icon-instagram" viewBox="0 0 32 32"><path fill="#f4f4fd" d="M31.969 9.408c-.075-1.7-.35-2.869-.744-3.882a7.803 7.803 0 0 0-1.85-2.838A7.867 7.867 0 0 0 26.543.844C25.524.45 24.361.175 22.661.1 20.948.019 20.404 0 16.06 0s-4.888.019-6.595.094c-1.7.075-2.869.35-3.882.744a7.803 7.803 0 0 0-2.838 1.85A7.867 7.867 0 0 0 .901 5.52C.507 6.539.232 7.702.157 9.402c-.081 1.713-.1 2.257-.1 6.601s.019 4.888.094 6.595c.075 1.7.35 2.869.744 3.882a7.895 7.895 0 0 0 1.85 2.838 7.867 7.867 0 0 0 2.832 1.844c1.019.394 2.182.669 3.882.744 1.706.075 2.25.094 6.595.094s4.888-.018 6.595-.094c1.7-.075 2.869-.35 3.882-.744a8.181 8.181 0 0 0 4.682-4.682c.394-1.019.669-2.182.744-3.882.075-1.707.094-2.251.094-6.595s-.006-4.888-.081-6.595zm-2.882 13.065c-.069 1.563-.331 2.407-.55 2.969a5.307 5.307 0 0 1-3.038 3.038c-.563.219-1.413.481-2.969.55-1.688.075-2.194.094-6.464.094s-4.782-.018-6.464-.094c-1.563-.069-2.407-.331-2.969-.55a4.926 4.926 0 0 1-1.838-1.194 4.974 4.974 0 0 1-1.194-1.838c-.219-.563-.481-1.413-.55-2.969-.075-1.688-.094-2.194-.094-6.464s.019-4.782.094-6.464c.069-1.563.331-2.407.55-2.969a4.868 4.868 0 0 1 1.2-1.838A4.974 4.974 0 0 1 6.639 3.55c.563-.219 1.413-.481 2.969-.55 1.688-.075 2.194-.094 6.464-.094 4.276 0 4.782.019 6.464.094 1.563.069 2.407.331 2.969.55a4.914 4.914 0 0 1 1.838 1.194 4.974 4.974 0 0 1 1.194 1.838c.219.563.481 1.413.55 2.969.075 1.688.094 2.194.094 6.464s-.019 4.77-.094 6.457z" style="fill:var(--color4, #f4f4fd)"/><path fill="#f4f4fd" d="M16.059 7.782c-4.538 0-8.22 3.682-8.22 8.22s3.682 8.22 8.22 8.22 8.22-3.682 8.22-8.22-3.682-8.22-8.22-8.22zm0 13.553a5.333 5.333 0 0 1 0-10.664 5.333 5.333 0 0 1 0 10.664zM26.524 7.457a1.919 1.919 0 1 1-3.838 0 1.919 1.919 0 0 1 3.838 0z" style="fill:var(--color4, #f4f4fd)"/></symbol><symbol id="icon-laptop" viewBox="0 0 41 32"><path d="M2.047 31.732h32.751c1.13 0 2.047-.916 2.047-2.047v-2.729c0-1.13-.917-2.047-2.047-2.047h-.682V7.894l3.876-3.671a2.06 2.06 0 1 0-.955-.976l-2.92 2.768V4.441c0-1.13-.916-2.047-2.047-2.047H4.778c-1.13 0-2.047.917-2.047 2.047V24.91h-.682c-1.13 0-2.047.916-2.047 2.047v2.729c0 1.13.917 2.047 2.047 2.047zM38.892 1.711a.682.682 0 1 1 0 1.363.682.682 0 0 1 0-1.363zM4.094 4.44c0-.377.306-.682.682-.682h27.292c.377 0 .682.306.682.682v2.865l-1.365 1.297V5.804a.682.682 0 0 0-.682-.682H6.14a.682.682 0 0 0-.682.682v17.058c0 .377.306.682.682.682h24.563a.682.682 0 0 0 .682-.682V10.479l1.365-1.293v15.723H4.093V4.44zm6.141 8.87a2.045 2.045 0 0 0-1.051 3.807 2.047 2.047 0 0 0 2.468-.289l2.372 1.19c.276.138.61.073.815-.157l5.042-5.672 4.956 3.714a.683.683 0 0 0 .878-.05l4.307-4.08v10.408H6.823V6.488h23.199v3.405l-4.828 4.572-4.998-3.747a.682.682 0 0 0-.919.092l-5.111 5.751-1.911-.956c.014-.082.023-.165.026-.248 0-1.13-.917-2.047-2.047-2.047zm.682 2.047a.682.682 0 1 1-1.363 0 .682.682 0 0 1 1.363 0zm4.094 10.917h6.823v.682a.682.682 0 0 1-.682.682h-5.459a.682.682 0 0 1-.682-.682v-.682zm-13.646.682c0-.377.306-.682.682-.682h11.599v.682c0 1.13.916 2.047 2.047 2.047h5.459c1.13 0 2.047-.916 2.047-2.047v-.682h11.599c.377 0 .682.305.682.682v2.729a.682.682 0 0 1-.682.682H2.047a.682.682 0 0 1-.682-.682v-2.729z"/></symbol><symbol id="icon-linkedin" viewBox="0 0 32 32"><path fill="#f4f4fd" d="M31.992 32v-.001H32V20.263c0-5.741-1.236-10.164-7.948-10.164-3.227 0-5.392 1.771-6.276 3.449h-.093v-2.913h-6.364v21.364h6.627V21.42c0-2.785.528-5.479 3.977-5.479 3.399 0 3.449 3.179 3.449 5.657v10.401h6.62zM.528 10.636h6.635V32H.528V10.636zM3.843 0C1.722 0 0 1.721 0 3.843s1.721 3.879 3.843 3.879c2.121 0 3.843-1.757 3.843-3.879A3.846 3.846 0 0 0 3.843 0z" style="fill:var(--color4, #f4f4fd)"/></symbol><symbol id="icon-twitter" viewBox="0 0 32 32"><path fill="#f4f4fd" d="M32 6.078c-1.19.522-2.458.868-3.78 1.036a6.523 6.523 0 0 0 2.886-3.626 13.11 13.11 0 0 1-4.16 1.588A6.574 6.574 0 0 0 22.154 3c-3.632 0-6.556 2.948-6.556 6.562 0 .52.044 1.02.152 1.496-5.454-.266-10.28-2.88-13.522-6.862a6.605 6.605 0 0 0-.898 3.316 6.57 6.57 0 0 0 2.914 5.452 6.479 6.479 0 0 1-2.964-.808v.072c0 3.188 2.274 5.836 5.256 6.446a6.548 6.548 0 0 1-1.72.216 5.8 5.8 0 0 1-1.242-.112c.85 2.598 3.262 4.508 6.13 4.57a13.182 13.182 0 0 1-8.134 2.798c-.538 0-1.054-.024-1.57-.09A18.469 18.469 0 0 0 10.064 29c12.072 0 18.672-10 18.672-18.668 0-.29-.01-.57-.024-.848A13.087 13.087 0 0 0 32 6.078z" style="fill:var(--color4, #f4f4fd)"/></symbol><symbol id="icon-Union" viewBox="0 0 28 32"><path fill="#8e8f99" d="m4.085 0 4.771 4.546L0 4.541v22.054h23.149v-8.432l4.766 4.541V.001H4.085zm18.854 17.629L9.411 4.74h13.528v12.889zm-4.2 5.74H3.663V8.536h1.066v13.828h14.01v1.004zM6.67 30.68l-.562-1.155h-.464l.814 1.529v.891h.421v-.891l.814-1.529h-.462l-.562 1.155zm2.071-1.155h.1l.914 2.42h-.439l-.196-.567h-.937l-.195.567h-.437l.911-2.42h.279zm-.444 1.522h.709l-.355-1.027-.354 1.027zm2.925-.401-.053-.068a1.266 1.266 0 0 1-.145-.238.647.647 0 0 1 .026-.565.519.519 0 0 1 .221-.209.71.71 0 0 1 .334-.075c.123 0 .229.025.317.075.09.049.158.114.206.194.049.081.073.17.073.266 0 .076-.014.146-.042.209s-.066.121-.115.173a1.188 1.188 0 0 1-.17.148l-.168.122.479.566a.966.966 0 0 0 .105-.452h.346c0 .117-.012.229-.035.334a1.039 1.039 0 0 1-.177.4l.355.418h-.464l-.141-.165a.952.952 0 0 1-.248.136 1.107 1.107 0 0 1-.376.063c-.161 0-.3-.029-.417-.088s-.208-.14-.273-.243a.665.665 0 0 1-.095-.354c0-.099.021-.185.061-.259a.797.797 0 0 1 .168-.209c.066-.059.14-.119.224-.178zm.198.243-.05.036a.61.61 0 0 0-.131.138.394.394 0 0 0-.023.409.344.344 0 0 0 .135.138c.06.033.132.05.218.05a.62.62 0 0 0 .391-.137l-.539-.633zm.096-.442.148-.1a.552.552 0 0 0 .15-.136.3.3 0 0 0 .045-.17.241.241 0 0 0-.255-.233.246.246 0 0 0-.231.143.338.338 0 0 0-.028.141c0 .05.013.101.038.155a.994.994 0 0 0 .133.2zm4.234.71h-.416a.776.776 0 0 1-.076.268.383.383 0 0 1-.168.165.626.626 0 0 1-.288.056c-.098 0-.181-.019-.251-.058s-.127-.094-.173-.165a.822.822 0 0 1-.1-.254 1.62 1.62 0 0 1-.032-.332v-.204c0-.129.012-.243.035-.342.024-.101.06-.186.108-.254s.107-.121.178-.156a.557.557 0 0 1 .249-.053c.116 0 .211.02.283.06a.378.378 0 0 1 .163.17.756.756 0 0 1 .073.268h.416a1.046 1.046 0 0 0-.136-.43c-.073-.125-.176-.223-.309-.294s-.296-.106-.489-.106c-.152 0-.289.027-.411.08a.862.862 0 0 0-.311.231c-.086.1-.153.22-.2.361a1.546 1.546 0 0 0-.068.472v.201c0 .174.022.331.067.472.045.141.111.261.196.361a.878.878 0 0 0 .307.229c.12.053.254.08.404.08.195 0 .361-.035.497-.106s.242-.168.317-.291a.958.958 0 0 0 .133-.424zm2.309-.356v-.133c0-.183-.024-.346-.073-.49a1.08 1.08 0 0 0-.204-.371.868.868 0 0 0-.317-.234 1.005 1.005 0 0 0-.409-.081c-.148 0-.284.027-.407.081a.876.876 0 0 0-.317.234 1.084 1.084 0 0 0-.206.371 1.52 1.52 0 0 0-.073.49v.133c0 .183.024.347.073.492.05.145.12.269.209.371s.196.18.317.234c.123.053.259.08.407.08.15 0 .286-.027.409-.08a.879.879 0 0 0 .316-.234c.089-.102.157-.226.204-.371s.072-.309.072-.492zm-.417-.136v.136c0 .135-.013.255-.04.359a.777.777 0 0 1-.113.264.493.493 0 0 1-.431.214.556.556 0 0 1-.246-.053.527.527 0 0 1-.186-.161c-.051-.072-.09-.16-.116-.264s-.04-.224-.04-.359v-.136c0-.135.013-.254.04-.357a.784.784 0 0 1 .115-.261.5.5 0 0 1 .43-.215c.092 0 .175.018.248.055a.47.47 0 0 1 .184.16c.051.07.089.157.115.261.027.103.04.222.04.357z" style="fill:var(--color3, #8e8f99)"/></symbol></defs></svg>